<?xml version="1.0" encoding="UTF-8"?>
<svg id="Calque_2" data-name="Calque 2" xmlns="http://www.w3.org/2000/svg" viewBox="0 0 232.69 146.68">
  <defs>
    <style>
      .cls-1 {
        fill: #40680c;
      }
    </style>
  </defs>
  <g id="Calque_2-2" data-name="Calque 2">
    <g>
      <path class="cls-1" d="m171.38,96.91c-.37,0-.75-.02-1.12-.06-5.94-.65-10.42-6.22-15.25-12.87-5.94-8.19-13.94-11.4-25.17-10.1-6.05.7-12.55,6.56-17.78,11.26-2.51,2.26-4.67,4.21-6.67,5.53-4.29,2.82-7.08,1.83-8.66.5-5.29-4.44-9.59-15.53-9.4-24.21.16-7.41,4.55-14.69,8.2-19.5,4.43-5.83,10.19-11.12,15.42-14.16,3.57-2.08,5.22-4.81,7.13-7.97,2.43-4.02,5.19-8.58,11.98-11.43,6.78-2.84,10.32-2.39,12.91-2.07,1.7.22,2.41.3,4.15-.57,1.32-.66,3.23-2.3,5.07-3.88,4.35-3.73,9.28-7.96,14.67-7.3,2.73.33,5.06,1.84,6.94,4.49,4.95,6.95-2.78,18.77-10.96,31.27-3.49,5.33-9.29,14.2-9.22,16.8,1.39,2.58,2.26,2.78,3.97,3.16,1.66.37,3.94.89,6.1,3.15,1.75,1.84,2.72,2.34,3.14,2.48.18.06.26.08.65-.24l.57-.46c6.71-5.51,11.66-8.74,15.63-7.9,1.67.36,3.01,1.4,3.78,2.93,1.84,3.67,1.12,12.88.4,17.74-.98,6.63-3.18,15.46-8.13,19.83-2.7,2.39-5.51,3.59-8.36,3.59Zm-36.88-30.88c11.3,0,20.05,4.45,26.62,13.5,2.57,3.54,6.86,9.46,9.96,9.8.38.04,1.56.17,3.66-1.68,5.08-4.49,6.85-20.94,6.26-26.91-1.4.7-3.85,2.29-8.15,5.82l-.59.49c-4.22,3.43-8.93,2.45-14.02-2.9-.55-.58-.99-.7-2.29-.99-2.41-.54-6.04-1.36-9.11-7.22-2.62-4.99,1.75-12.11,9.69-24.25,3.43-5.24,6.97-10.65,9.19-15.25,2.91-6.03,1.95-7.49,1.94-7.5-.6-.84-1.17-1.3-1.71-1.37-2.09-.26-6.15,3.23-8.83,5.53-2.29,1.97-4.46,3.82-6.61,4.9-3.8,1.9-6.39,1.57-8.48,1.31-2.03-.26-4.13-.52-9.04,1.54-4.52,1.89-6.25,4.75-8.43,8.37-2.14,3.54-4.56,7.54-9.8,10.59-9.03,5.25-19.67,18.32-19.87,27.3h0c-.14,6.32,2.98,14.22,5.94,17.51,1.48-.87,4.15-3.27,6.18-5.1,6.02-5.43,13.52-12.18,21.97-13.15,1.91-.22,3.76-.33,5.54-.33Z"/>
      <g>
        <path class="cls-1" d="m23.62,92.98c.12,1.04-.41,1.51-1.51,1.45-1.62-.06-2.84.17-4.47.41-.75.99-1.92,2.55-1.97,3.19,5.22-.41,6.15,4.06,6.15,7.31,0,5.17-4.01,9.23-8.94,9.23-2.15.12-3.6.29-4.64.64,0,0,.23-2.21.23-3.37,0-1.34-.23-3.37-.23-3.37.87.41,2.15.7,3.83.7s3.31-1.16,3.31-3.83c0-1.97-1.57-3.02-3.19-3.19-1.8-.17-3.95.35-3.95.35,1.68-3.19,2.38-5.75,2.55-7.84-6.85-1.62-10.8-8.53-10.8-21.24,0-13.52,5.34-21.53,14.34-21.53,3.6,0,5.22.75,7.84.64,1.04-.06,1.57.41,1.45,1.45-.29,2.9-.46,6.5-.41,9.58.06,1.33-.64,1.51-1.51.41-2.03-2.55-3.89-3.77-5.92-3.77-3.66,0-6.27,5.28-6.27,13.47,0,7.37,2.61,13.18,6.27,13.18,2.03,0,3.83-1.04,6.15-4.12.81-1.04,1.33-.93,1.28.35-.06,3.13.17,6.85.41,9.93Z"/>
        <path class="cls-1" d="m24.96,79.28c0-7.37,2.9-15.5,8.53-15.5,2.73,0,4.59,1.45,5.86,3.13l-.12-.52c-.23-1.1.35-1.68,1.39-1.57,1.04.17,2.09.23,3.83.23s2.9-.06,4.06-.17c1.04-.12,1.57.41,1.33,1.51-.52,2.61-1.39,7.6-1.39,13.06s.87,10.51,1.39,13.06c.23,1.1-.29,1.63-1.33,1.51-1.16-.12-2.26-.17-4.06-.17s-2.79.06-3.83.17c-1.1.17-1.57-.46-1.28-1.57.23-.93.52-2.21.7-3.71-.58,2.15-2.03,5.98-7.26,5.98s-7.66-5.46-7.84-15.44Zm15.15-.06c0-4.53-1.1-7.78-3.48-7.78-2.03,0-3.42,3.54-3.48,7.84.12,6.5,3.71,9.17,6.97,7.08v-7.14Z"/>
      </g>
      <g>
        <path class="cls-1" d="m65.54,145.45c-7.95-2.67-10.68-8.36-10.68-18.11v-4.47c0-1.92-.17-3.77-.35-5.51-.64,2.26-1.34,5.28-2.21,9.23-.93,4-2.38,10.68-3.25,15.61-.17.87-.75,1.39-1.62,1.39h-2.73c-.87,0-1.39-.52-1.57-1.39-.87-4.99-2.26-12.02-3.08-15.61-.87-3.83-1.68-6.79-2.44-9.06-.17,1.68-.29,3.48-.29,5.34,0,8.07,1.16,15.67,1.74,18.92.23,1.04-.35,1.68-1.39,1.51-1.28-.23-2.5-.35-4.59-.35-1.92,0-3.19.12-4.3.29-1.1.23-1.68-.41-1.45-1.45.58-3.31,1.8-10.85,1.8-18.92s-1.22-15.67-1.8-18.98c-.17-1.04.35-1.63,1.45-1.45,1.1.17,2.38.29,4.3.29,2.32,0,4.59-.17,6.44-.41.99-.12,1.51.35,1.62,1.28.46,4.64,2.84,13.58,4.93,23.68,2.09-10.1,4.47-19.04,4.93-23.68.12-.93.64-1.33,1.63-1.22,1.62.17,3.66.35,6.15.35,2.09,0,3.31-.12,4.53-.35,1.1-.12,1.68.46,1.45,1.51-.58,3.25-1.8,10.85-1.8,18.98v4.47c0,4.47,1.68,7.95,5.63,8.82,5.69,1.28,15.5.17,20.32-.81,1.1-.23,1.57.23,1.45,1.33-.23,2.44-.29,6.09,0,8.47.12.99-.29,1.57-1.33,1.51-6.04-.35-19.85.06-23.51-1.22Zm.23-28.27c0-7.37,2.9-15.5,8.53-15.5,2.73,0,4.59,1.45,5.86,3.13l-.12-.52c-.23-1.1.35-1.74,1.39-1.57,1.04.17,2.09.23,3.83.23s2.9-.06,4.06-.17c1.04-.12,1.57.41,1.33,1.51-.52,2.61-1.39,7.6-1.39,13.06s.87,10.51,1.39,13.06c.23,1.1-.29,1.62-1.33,1.51-1.16-.12-2.26-.17-4.06-.17s-2.79.06-3.83.17c-1.1.17-1.57-.46-1.28-1.57.23-.93.52-2.21.7-3.71-.58,2.15-2.03,5.98-7.26,5.98s-7.84-5.46-7.84-15.44Zm15.15-.06c0-4.53-1.1-7.78-3.48-7.78-2.03,0-3.42,3.54-3.48,7.84.12,6.5,3.71,9.17,6.97,7.08v-7.14Z"/>
        <path class="cls-1" d="m97.86,143.07c-1.8,0-2.9.06-4.06.17-1.04.12-1.57-.41-1.33-1.45.52-2.61,1.39-7.66,1.39-13.12s-.87-10.45-1.39-13.06c-.23-1.1.29-1.62,1.33-1.51,1.16.12,2.26.17,4.06.17s2.5-.06,3.48-.17c.99-.17,1.57.41,1.45,1.45l-.29,3.08c.99-2.61,2.96-5.63,5.86-5.63.64,0,1.22.06,1.68.06,1.04.06,1.39.52,1.28,1.51-.23,1.57-.46,3.95-.41,5.75,0,1.1-.29,1.28-1.28.93-.99-.35-1.97-.41-2.9-.41-3.95,0-4.7,4.35-4.76,8.36.06,5.28.93,10.1,1.51,12.6.23,1.04-.35,1.63-1.39,1.51-1.22-.17-2.44-.23-4.24-.23Z"/>
        <path class="cls-1" d="m111.21,128.62c0-8.42,3.48-15.61,13.93-15.61,2.84,0,4.35.7,5.8.99.93.12,1.45.58,1.33,1.57-.29,2.38-.52,4.35-.46,6.67.06,1.22-.35,1.33-1.16.35-1.68-1.97-3.31-2.5-5.22-2.55-3.25.23-5.57,4.3-5.57,8.76s2.5,8.42,5.46,8.47c2.21-.06,3.77-.7,5.51-3.19.7-1.1,1.04-1.04.99.29-.06,2.55.17,4.88.52,7.49.06.93-.35,1.57-1.22,1.74-1.33.35-3.66.75-6.09.75-10.04,0-13.81-7.14-13.81-15.73Z"/>
        <path class="cls-1" d="m154.8,143.19c-1.74,0-2.9.06-4.06.17-1.04.12-1.57-.46-1.28-1.57.58-2.55,1.63-7.72,1.63-12.89,0-6.5-1.86-8.18-3.6-8.18-2.26,0-3.54,3.37-3.83,5.98.23,6.62.87,12.36,1.22,15.15.12,1.1-.41,1.62-1.45,1.45-1.1-.17-1.97-.29-3.77-.29s-2.96.12-4.06.29c-1.04.17-1.63-.35-1.39-1.51.52-3.25,1.51-10.8,1.51-18.92s-.99-15.67-1.51-18.92c-.23-1.1.35-1.68,1.39-1.51,1.1.17,2.32.29,4.06.29,1.86,0,3.02-.12,4.3-.35,1.04-.12,1.62.46,1.39,1.57-.52,2.84-1.45,9-1.68,15.96.52-1.62,2.21-6.79,8.07-6.79,4.06,0,7.43,3.77,7.43,15.79,0,5.4.81,10.45,1.28,12.94.17,1.1-.29,1.68-1.33,1.57-1.28-.17-2.5-.23-4.29-.23Z"/>
        <path class="cls-1" d="m161.71,128.62c0-8.53,4.41-15.61,13.29-15.61,7.66,0,11.38,5.11,11.38,11.03,0,6.44-5.46,9.35-9.69,9.35-1.97,0-3.95-.35-5.57-.87.64,3.13,2.5,4.76,5.51,4.76,2.73,0,5.05-.99,7.43-3.6.93-.93,1.33-.75,1.33.46-.17,2.67.06,5.17.35,7.78.12,1.04-.41,1.51-1.39,1.57-2.44.12-4.12.87-8.13.87-9.69,0-14.51-7.14-14.51-15.73Zm16.54-4.59c-.23-3.66-1.39-5.05-3.25-5.05-2.44,0-3.95,3.6-4.18,9.06,1.45.41,2.44.7,3.95.7,1.92,0,3.48-.87,3.48-4.7Z"/>
        <path class="cls-1" d="m202.63,127.4c.12-1.04.17-2.61.23-5.22,0-.93.46-1.39,1.33-1.57,3.54-.75,6.68-4.06,6.68-7.14,0-2.5-1.57-3.66-3.6-3.66-1.92,0-3.71,1.1-5.63,3.89-.75,1.04-1.16,1.04-1.16-.12.12-3.08-.06-6.73-.35-9.81-.12-1.04.41-1.51,1.45-1.45,2.55.12,4.12-.64,7.66-.64,6.21,0,9.75,2.21,9.75,9.87,0,5.51-3.25,9.17-8.13,9.17,0,3.48.12,5.46.23,6.62.12,1.04-.35,1.45-1.33,1.39-2.09-.23-3.89-.23-5.98,0-.93.06-1.28-.35-1.16-1.33Zm-1.51,10.51c0-3.19,2.55-5.75,5.75-5.75s5.69,2.67,5.69,5.75-2.55,5.69-5.69,5.69-5.75-2.55-5.75-5.69Z"/>
        <path class="cls-1" d="m221.26,137.91c0-3.19,2.55-5.75,5.75-5.75s5.69,2.67,5.69,5.75-2.55,5.69-5.69,5.69-5.75-2.55-5.75-5.69Zm2.61-9.23c-.99.12-1.62-.41-1.51-1.45.29-2.03.58-5.98.58-11.03,0-5.34-.93-9.98-1.45-12.31-.29-1.1.23-1.68,1.33-1.57,3.08.23,5.34.23,8.24,0,1.1-.12,1.62.46,1.33,1.57-.52,2.38-1.45,6.97-1.45,12.31s.17,9.06.23,11.09c.06,1.04-.46,1.51-1.45,1.45-2.09-.23-3.83-.23-5.86-.06Z"/>
      </g>
    </g>
  </g>
</svg>